<?xml version="1.0" encoding="UTF-8" standalone="no"?><!DOCTYPE svg PUBLIC "-//W3C//DTD SVG 1.1//EN" "http://www.w3.org/Graphics/SVG/1.1/DTD/svg11.dtd"><svg width="100%" height="100%" viewBox="0 0 48 48" version="1.1" xmlns="http://www.w3.org/2000/svg" xmlns:xlink="http://www.w3.org/1999/xlink" xml:space="preserve" xmlns:serif="http://www.serif.com/" style="fill-rule:evenodd;clip-rule:evenodd;stroke-linejoin:round;stroke-miterlimit:2;"><path d="M48,10c0,-4.389 -3.611,-8 -8,-8l-16,0c-2.134,0 -4.07,0.834 -5.506,2.196c-1.034,0.982 -2.302,1.804 -3.732,1.804l-6.762,0c-4.389,0 -8,3.611 -8,8l0,24c0,4.389 3.611,8 8,8l16,0c2.048,0.002 4.02,-0.784 5.504,-2.196c1.036,-0.982 2.304,-1.804 3.732,-1.804l6.764,0c4.389,0 8,-3.611 8,-8l-0,-24Z" style="fill:#ff9100;"/><g><path d="M14.372,23.829l4.66,0c1.004,1.245 1.506,2.557 1.506,3.938c-0,1.606 -0.588,2.955 -1.765,4.047c-1.176,1.092 -2.623,1.638 -4.341,1.638c-2.232,-0 -4.127,-0.847 -5.684,-2.541c-1.558,-1.694 -2.337,-3.758 -2.337,-6.191c0,-2.44 0.793,-4.471 2.379,-6.093c1.585,-1.622 3.566,-2.433 5.943,-2.433c0.811,0 1.71,0.165 2.698,0.494l-0,4.889c-0.771,-0.361 -1.474,-0.542 -2.108,-0.542c-1.148,0 -2.085,0.358 -2.812,1.072c-0.727,0.715 -1.09,1.642 -1.09,2.782c0,1.164 0.337,2.088 1.012,2.77c0.674,0.682 1.585,1.024 2.733,1.024c0.731,-0 1.096,-0.213 1.096,-0.639c0,-0.321 -0.24,-0.481 -0.722,-0.481l-1.168,-0l-0,-3.734Z" style="fill-rule:nonzero;"/><rect x="22.525" y="16.604" width="4.889" height="16.439" style="fill-rule:nonzero;"/><path d="M36.88,24.347l-0,4.408l-1.626,-0l0,4.287l-4.889,0l-0,-10.2c-0,-1.919 0.592,-3.507 1.776,-4.763c1.184,-1.257 2.676,-1.885 4.474,-1.885c1.983,0 3.641,0.855 4.974,2.565l-4.011,2.927c-0.224,-0.627 -0.622,-0.94 -1.192,-0.94c-0.754,0 -1.132,0.522 -1.132,1.566l0,2.035l1.626,0Z" style="fill-rule:nonzero;"/></g></svg>