<?xml version="1.0" encoding="UTF-8" standalone="no"?><!DOCTYPE svg PUBLIC "-//W3C//DTD SVG 1.1//EN" "http://www.w3.org/Graphics/SVG/1.1/DTD/svg11.dtd"><svg width="100%" height="100%" viewBox="0 0 16 16" version="1.1" xmlns="http://www.w3.org/2000/svg" xmlns:xlink="http://www.w3.org/1999/xlink" xml:space="preserve" xmlns:serif="http://www.serif.com/" style="fill-rule:evenodd;clip-rule:evenodd;stroke-linejoin:round;stroke-miterlimit:2;"><rect x="5.493" y="2.214" width="0.729" height="1.458" style="fill:#ffdf12;fill-rule:nonzero;"/><rect x="4.765" y="3.672" width="0.729" height="1.458" style="fill:#ffdf12;fill-rule:nonzero;"/><rect x="9.866" y="6.587" width="0.729" height="0.729" style="fill:#fec401;fill-rule:nonzero;"/><rect x="9.137" y="7.316" width="0.729" height="0.729" style="fill:#fec401;fill-rule:nonzero;"/><rect x="8.409" y="8.044" width="0.729" height="0.729" style="fill:#fec401;fill-rule:nonzero;"/><rect x="7.68" y="8.773" width="0.729" height="0.729" style="fill:#fec401;fill-rule:nonzero;"/><rect x="6.951" y="9.502" width="0.729" height="0.729" style="fill:#fec401;fill-rule:nonzero;"/><rect x="6.222" y="10.231" width="0.729" height="0.729" style="fill:#fec401;fill-rule:nonzero;"/><rect x="5.493" y="10.959" width="0.729" height="0.729" style="fill:#fec401;fill-rule:nonzero;"/><rect x="4.765" y="11.688" width="0.729" height="0.729" style="fill:#fec401;fill-rule:nonzero;"/><path d="M12.052,1.485l0,0.729l-0.728,-0l-0,0.729l-0.729,-0l0,0.729l-0.729,-0l0,0.728l-0.729,0l0,0.729l-0.728,0l-0,1.458l1.457,-0l0,0.729l-0.729,-0l0,0.728l-0.728,0l-0,0.729l-0.729,-0l-0,0.729l-0.729,0l0,0.729l-0.729,-0l0,0.728l-0.729,0l0,0.729l-0.728,0l-0,0.729l-0.729,0l0,-1.458l0.729,0l-0,-1.457l0.728,0l0,-2.186l-2.186,-0l-0,-0.729l0.729,-0l0,-1.458l0.729,0l-0,0.729l0.728,-0l0,-0.729l0.729,0l0,-1.457l0.729,-0l0,-1.458l-0.729,-0l0,-0.729l5.83,0Z" style="fill:#ffdf12;fill-rule:nonzero;"/><rect x="4.036" y="12.417" width="0.729" height="0.729" style="fill:#fec401;fill-rule:nonzero;"/><rect x="3.307" y="12.417" width="0.729" height="0.729" style="fill:#ffdf12;fill-rule:nonzero;"/><rect x="3.307" y="13.146" width="0.729" height="0.729" style="fill:#fec401;fill-rule:nonzero;"/><path d="M12.052,0.757l0,0.728l-5.83,0l0,0.729l-0.729,-0l0,-1.457l6.559,-0Z" style="fill-rule:nonzero;"/><rect x="11.324" y="2.214" width="0.729" height="0.729" style="fill-rule:nonzero;"/><rect x="12.052" y="0.757" width="0.729" height="1.457" style="fill-rule:nonzero;"/><rect x="4.765" y="2.214" width="0.729" height="1.458" style="fill-rule:nonzero;"/><rect x="10.595" y="2.943" width="0.729" height="0.729" style="fill-rule:nonzero;"/><rect x="9.866" y="3.672" width="0.729" height="0.729" style="fill-rule:nonzero;"/><rect x="4.036" y="3.672" width="0.729" height="1.458" style="fill-rule:nonzero;"/><rect x="9.137" y="4.4" width="0.729" height="0.729" style="fill-rule:nonzero;"/><path d="M11.324,5.858l-0,1.458l-0.729,-0l0,-0.729l-2.186,-0l-0,-1.458l0.728,0l0,0.729l2.187,-0Z" style="fill-rule:nonzero;"/><rect x="3.307" y="5.129" width="0.729" height="1.457" style="fill-rule:nonzero;"/><path d="M5.493,7.316l0,2.186l-0.728,0l-0,-1.458l-2.187,0l0,-1.457l0.729,-0l-0,0.729l2.186,-0Z" style="fill-rule:nonzero;"/><rect x="9.866" y="7.316" width="0.729" height="0.729" style="fill-rule:nonzero;"/><rect x="4.036" y="9.502" width="0.729" height="1.457" style="fill-rule:nonzero;"/><rect x="3.307" y="10.959" width="0.729" height="1.458" style="fill-rule:nonzero;"/><path d="M4.036,13.875l0,0.728l-1.458,0l0,-2.186l0.729,0l-0,1.458l0.729,-0Z" style="fill-rule:nonzero;"/><rect x="9.137" y="8.044" width="0.729" height="0.729" style="fill-rule:nonzero;"/><rect x="8.409" y="8.773" width="0.729" height="0.729" style="fill-rule:nonzero;"/><rect x="7.68" y="9.502" width="0.729" height="0.729" style="fill-rule:nonzero;"/><rect x="6.951" y="10.231" width="0.729" height="0.729" style="fill-rule:nonzero;"/><rect x="6.222" y="10.959" width="0.729" height="0.729" style="fill-rule:nonzero;"/><rect x="5.494" y="11.688" width="0.729" height="0.729" style="fill-rule:nonzero;"/><rect x="4.765" y="12.417" width="0.729" height="0.729" style="fill-rule:nonzero;"/><rect x="4.036" y="13.146" width="0.729" height="0.729" style="fill-rule:nonzero;"/><rect x="6.222" y="2.214" width="0.729" height="1.458" style="fill:#fff;fill-rule:nonzero;"/><rect x="5.493" y="3.672" width="0.729" height="1.458" style="fill:#fff;fill-rule:nonzero;"/><rect x="4.765" y="5.129" width="0.729" height="0.729" style="fill:#fff;fill-rule:nonzero;"/></svg>