<svg width="100%" height="100%" viewBox="0 0 2134 2134" version="1.1"
     xmlns="http://www.w3.org/2000/svg" xml:space="preserve"
     style="fill-rule:evenodd;clip-rule:evenodd;stroke-linejoin:round;stroke-miterlimit:2;">
  <g>
    <path d="M1985.4,821.735l0,405.315c0,99.437 -15.904,170.556 -24.491,271.787c-2.977,35.103 3.06,63.791 10.057,99.911c108.483,559.99 62.312,514.013 -228.578,215.182c-47.058,-48.342 -96.212,27.544 -153.717,56.516c-97.22,48.982 -207.033,76.572 -323.238,76.572l-436.791,0c-397.361,0 -719.968,-322.607 -719.968,-719.968l0,-405.315c0,-397.361 322.607,-719.967 719.968,-719.967l436.791,-0c397.361,-0 719.967,322.606 719.967,719.967Z"
          style="fill:#FEA605;" />
    
    <circle cx="755.596" cy="834.767" r="103.866" style="fill:#1b2129;" />
    <circle cx="1292.44" cy="834.767" r="103.866" style="fill:#1b2129;" />

    <path d="M673.649,1123.25c-3.145,-13.722 0.133,-28.129 8.906,-39.139c8.772,-11.011 22.083,-17.425 36.161,-17.425c27.712,-0.014 61.363,-0.014 87.041,-0.014c20.8,0.001 39.04,13.886 44.578,33.935c18.385,65.614 89.151,114.462 173.632,114.462c84.48,0 155.246,-48.848 173.704,-114.442c5.53,-20.015 23.74,-33.877 44.505,-33.877c25.678,-0.078 59.329,-0.078 87.041,-0.078c14.083,-0.001 27.399,6.415 36.174,17.429c8.776,11.014 12.056,25.426 8.909,39.153c-31.77,136.851 -176.541,240.213 -350.333,240.213c-173.793,-0 -318.563,-103.362 -350.318,-240.217Z"
          style="fill:#1b2129;" />
  </g>
</svg>
