<?xml version="1.0" encoding="UTF-8" standalone="no"?><!DOCTYPE svg PUBLIC "-//W3C//DTD SVG 1.1//EN" "http://www.w3.org/Graphics/SVG/1.1/DTD/svg11.dtd"><svg width="100%" height="100%" viewBox="0 0 48 48" version="1.1" xmlns="http://www.w3.org/2000/svg" xmlns:xlink="http://www.w3.org/1999/xlink" xml:space="preserve" xmlns:serif="http://www.serif.com/" style="fill-rule:evenodd;clip-rule:evenodd;stroke-linecap:round;stroke-linejoin:round;stroke-miterlimit:1.5;"><g><path d="M5.056,18.921l-0,8.405c-0,2.062 0.328,3.536 0.505,5.635c0.061,0.728 -0.063,1.323 -0.207,2.072c-2.237,11.612 -1.285,10.658 4.713,4.462c0.97,-1.002 1.984,0.571 3.169,1.172c2.005,1.015 4.269,1.588 6.665,1.588l9.007,-0c8.193,-0 14.845,-6.69 14.845,-14.929l0,-8.405c0,-8.239 -6.652,-14.929 -14.845,-14.929l-9.007,0c-8.193,0 -14.845,6.69 -14.845,14.929Z" style="fill:none;stroke:#888;stroke-width:5.42px;"/></g><path d="M16.5,24l15,0" style="fill:none;stroke:#888;stroke-width:3.4px;"/><path d="M16.5,16.232l15,0" style="fill:none;stroke:#888;stroke-width:3.4px;"/><path d="M16.5,31.768l15,-0" style="fill:none;stroke:#888;stroke-width:3.4px;"/></svg>