<?xml version="1.0" encoding="UTF-8" standalone="no"?><!DOCTYPE svg PUBLIC "-//W3C//DTD SVG 1.1//EN" "http://www.w3.org/Graphics/SVG/1.1/DTD/svg11.dtd"><svg width="100%" height="100%" viewBox="0 0 48 48" version="1.1" xmlns="http://www.w3.org/2000/svg" xmlns:xlink="http://www.w3.org/1999/xlink" xml:space="preserve" xmlns:serif="http://www.serif.com/" style="fill-rule:evenodd;clip-rule:evenodd;stroke-linejoin:round;stroke-miterlimit:2;"><path d="M38.022,43.415c-18.467,0 -33.437,-14.97 -33.437,-33.437c-0,-0.833 0.03,-1.659 0.09,-2.477c0.069,-0.939 0.103,-1.408 0.349,-1.835c0.204,-0.354 0.565,-0.69 0.933,-0.867c0.444,-0.214 0.962,-0.214 1.997,-0.214l6.078,-0c0.871,-0 1.307,-0 1.68,0.143c0.33,0.127 0.623,0.332 0.855,0.599c0.262,0.302 0.411,0.711 0.709,1.53l2.515,6.918c0.347,0.952 0.52,1.428 0.491,1.88c-0.026,0.399 -0.162,0.782 -0.393,1.108c-0.262,0.369 -0.697,0.63 -1.566,1.151l-2.952,1.772c2.593,5.714 7.227,10.354 12.943,12.943l1.772,-2.952c0.521,-0.87 0.782,-1.304 1.151,-1.566c0.326,-0.231 0.709,-0.367 1.108,-0.393c0.452,-0.029 0.928,0.144 1.88,0.491l6.918,2.515c0.819,0.298 1.228,0.447 1.53,0.709c0.267,0.232 0.472,0.525 0.599,0.855c0.143,0.373 0.143,0.809 0.143,1.68l0,6.078c0,1.035 0,1.553 -0.214,1.997c-0.177,0.368 -0.513,0.729 -0.867,0.933c-0.427,0.246 -0.896,0.28 -1.835,0.349c-0.818,0.06 -1.644,0.09 -2.477,0.09Z" style="fill:#f9ac1f;fill-rule:nonzero;"/></svg>