<?xml version="1.0" encoding="UTF-8" standalone="no"?><!DOCTYPE svg PUBLIC "-//W3C//DTD SVG 1.1//EN" "http://www.w3.org/Graphics/SVG/1.1/DTD/svg11.dtd"><svg width="100%" height="100%" viewBox="0 0 200 200" version="1.1" xmlns="http://www.w3.org/2000/svg" xmlns:xlink="http://www.w3.org/1999/xlink" xml:space="preserve" xmlns:serif="http://www.serif.com/" style="fill-rule:evenodd;clip-rule:evenodd;stroke-linejoin:round;stroke-miterlimit:2;"><path d="M24.724,79.932l-0,33.209c-0,8.147 1.303,13.974 2.007,22.269c0.243,2.876 -0.251,5.226 -0.824,8.186c-8.889,45.882 -5.106,42.115 18.728,17.63c3.856,-3.96 7.883,2.257 12.595,4.631c7.965,4.013 16.963,6.274 26.484,6.274l35.788,-0c32.557,-0 58.99,-26.433 58.99,-58.99l-0,-33.209c-0,-32.558 -26.433,-58.99 -58.99,-58.99l-35.788,-0c-32.558,-0 -58.99,26.432 -58.99,58.99Z" style="fill:url(#_Linear1);"/><defs><linearGradient id="_Linear1" x1="0" y1="0" x2="1" y2="0" gradientUnits="userSpaceOnUse" gradientTransform="matrix(-150.684,0,0,150.684,178.492,100)"><stop offset="0" style="stop-color:#f4b137;stop-opacity:1"/><stop offset="1" style="stop-color:#ffa500;stop-opacity:1"/></linearGradient></defs></svg>