<?xml version="1.0" encoding="UTF-8" standalone="no"?><!DOCTYPE svg PUBLIC "-//W3C//DTD SVG 1.1//EN" "http://www.w3.org/Graphics/SVG/1.1/DTD/svg11.dtd"><svg width="100%" height="100%" viewBox="0 0 48 48" version="1.1" xmlns="http://www.w3.org/2000/svg" xmlns:xlink="http://www.w3.org/1999/xlink" xml:space="preserve" xmlns:serif="http://www.serif.com/" style="fill-rule:evenodd;clip-rule:evenodd;stroke-linejoin:round;stroke-miterlimit:2;"><g><path d="M45.188,18.351l0,9.348c0,2.293 -0.367,3.933 -0.565,6.268c-0.069,0.809 0.07,1.471 0.232,2.304c2.502,12.914 1.437,11.854 -5.272,4.962c-1.085,-1.115 -2.218,0.635 -3.544,1.304c-2.243,1.129 -4.775,1.765 -7.455,1.765l-10.073,0c-9.164,0 -16.604,-7.439 -16.604,-16.603l0,-9.348c0,-9.163 7.44,-16.603 16.604,-16.603l10.073,0c9.164,0 16.604,7.44 16.604,16.603Z" style="fill:#fff;"/><circle cx="13.302" cy="24" r="2.585" style="fill:#1b2129;"/><circle cx="23.933" cy="24" r="2.585" style="fill:#1b2129;"/><circle cx="34.564" cy="24" r="2.585" style="fill:#1b2129;"/></g></svg>