<?xml version="1.0" encoding="UTF-8" standalone="no"?><!DOCTYPE svg PUBLIC "-//W3C//DTD SVG 1.1//EN" "http://www.w3.org/Graphics/SVG/1.1/DTD/svg11.dtd"><svg width="100%" height="100%" viewBox="0 0 48 48" version="1.1" xmlns="http://www.w3.org/2000/svg" xmlns:xlink="http://www.w3.org/1999/xlink" xml:space="preserve" xmlns:serif="http://www.serif.com/" style="fill-rule:evenodd;clip-rule:evenodd;stroke-linejoin:round;stroke-miterlimit:2;"><g><path d="M7.401,19.574l-0,7.324c-0,1.796 0.287,3.081 0.443,4.91c0.054,0.634 -0.055,1.153 -0.182,1.805c-1.96,10.117 -1.126,9.287 4.13,3.888c0.85,-0.874 1.738,0.497 2.776,1.021c1.758,0.885 3.741,1.383 5.841,1.383l7.891,-0c7.179,-0 13.008,-5.828 13.008,-13.007l0,-7.324c0,-7.178 -5.829,-13.007 -13.008,-13.007l-7.891,0c-7.179,0 -13.008,5.829 -13.008,13.007Z" style="fill:#fff;stroke:#000;stroke-width:5.85px;"/></g></svg>