<?xml version="1.0" encoding="UTF-8" standalone="no"?><!DOCTYPE svg PUBLIC "-//W3C//DTD SVG 1.1//EN" "http://www.w3.org/Graphics/SVG/1.1/DTD/svg11.dtd"><svg width="100%" height="100%" viewBox="0 0 48 48" version="1.1" xmlns="http://www.w3.org/2000/svg" xmlns:xlink="http://www.w3.org/1999/xlink" xml:space="preserve" xmlns:serif="http://www.serif.com/" style="fill-rule:evenodd;clip-rule:evenodd;stroke-linejoin:round;stroke-miterlimit:2;"><path d="M0.734,41.722l4.284,-15.868l18.106,0c0.487,0 0.973,-0.487 0.973,-0.973l0,-1.947c0,-0.487 -0.486,-0.974 -0.973,-0.974l-18.106,0l-4.186,-15.575c-0.098,-0.195 -0.195,-0.487 -0.195,-0.779c0,-0.681 0.682,-1.362 1.46,-1.265c0.195,-0 0.292,0.097 0.487,0.097l43.805,18.009c0.584,0.195 0.974,0.779 0.974,1.363c-0,0.584 -0.39,1.071 -0.876,1.265l-43.903,18.496c-0.195,0.097 -0.389,0.097 -0.584,0.097c-0.779,-0.097 -1.363,-0.681 -1.363,-1.46c0,-0.194 0,-0.292 0.097,-0.486Z" style="fill:#ff9100;fill-rule:nonzero;"/></svg>