<?xml version="1.0" encoding="UTF-8" standalone="no"?><!DOCTYPE svg PUBLIC "-//W3C//DTD SVG 1.1//EN" "http://www.w3.org/Graphics/SVG/1.1/DTD/svg11.dtd"><svg width="100%" height="100%" viewBox="0 0 200 200" version="1.1" xmlns="http://www.w3.org/2000/svg" xmlns:xlink="http://www.w3.org/1999/xlink" xml:space="preserve" xmlns:serif="http://www.serif.com/" style="fill-rule:evenodd;clip-rule:evenodd;stroke-linejoin:round;stroke-miterlimit:2;"><path d="M179.94,78.688l0,35.267c0,8.652 -1.384,14.84 -2.131,23.648c-0.259,3.055 0.266,5.551 0.875,8.694c9.439,48.725 5.422,44.724 -19.889,18.723c-4.094,-4.206 -8.371,2.396 -13.375,4.917c-8.459,4.262 -18.014,6.663 -28.125,6.663l-38.005,-0c-34.575,-0 -62.645,-28.07 -62.645,-62.645l-0,-35.267c-0,-34.574 28.07,-62.644 62.645,-62.644l38.005,-0c34.575,-0 62.645,28.07 62.645,62.644Z" style="fill:url(#_Linear1);"/><circle cx="72.934" cy="79.822" r="9.037" style="fill:#1b2129;"/><circle cx="119.645" cy="79.822" r="9.037" style="fill:#1b2129;"/><path d="M65.804,104.923c-0.274,-1.194 0.011,-2.447 0.775,-3.405c0.763,-0.958 1.921,-1.516 3.146,-1.516c2.411,-0.002 5.339,-0.002 7.574,-0.002c1.809,0.001 3.396,1.209 3.878,2.953c1.6,5.709 7.757,9.96 15.108,9.96c7.351,-0 13.508,-4.251 15.114,-9.958c0.481,-1.742 2.066,-2.948 3.873,-2.948c2.234,-0.007 5.162,-0.007 7.573,-0.007c1.225,0 2.384,0.559 3.148,1.517c0.763,0.958 1.049,2.212 0.775,3.407c-2.765,11.907 -15.361,20.901 -30.483,20.901c-15.122,-0 -27.718,-8.994 -30.481,-20.902Z" style="fill:#1b2129;"/><defs><linearGradient id="_Linear1" x1="0" y1="0" x2="1" y2="0" gradientUnits="userSpaceOnUse" gradientTransform="matrix(160.02,0,0,160.02,16.6453,100)"><stop offset="0" style="stop-color:#f4b137;stop-opacity:1"/><stop offset="1" style="stop-color:#ffa500;stop-opacity:1"/></linearGradient></defs></svg>