<?xml version="1.0" encoding="UTF-8" standalone="no"?><!DOCTYPE svg PUBLIC "-//W3C//DTD SVG 1.1//EN" "http://www.w3.org/Graphics/SVG/1.1/DTD/svg11.dtd"><svg width="100%" height="100%" viewBox="0 0 800 800" version="1.1" xmlns="http://www.w3.org/2000/svg" xmlns:xlink="http://www.w3.org/1999/xlink" xml:space="preserve" xmlns:serif="http://www.serif.com/" style="fill-rule:evenodd;clip-rule:evenodd;stroke-linejoin:round;stroke-miterlimit:2;"><g><path d="M800,200l0,400c0,110.383 -89.617,200 -200,200l-400,0c-110.383,0 -200,-89.617 -200,-200l0,-400c0,-110.383 89.617,-200 200,-200l400,0c110.383,0 200,89.617 200,200Z" style="fill:#030054;"/><path d="M199.684,-0.411c391.621,266.666 384.695,533.333 0,800c-110.383,-0 -200,-89.617 -200,-200l0,-400c0,-110.383 89.617,-200 200,-200Z" style="fill:#110d88;"/></g><path d="M582.502,452.566c-43.621,23.281 -108.489,38.046 -180.848,38.046c-74.209,-0 -140.539,-15.53 -184.151,-39.849c51.312,10.161 116.419,16.684 187.227,16.684c66.528,0 128.023,-5.758 177.772,-14.881Z" style="fill:#fff;"/><path d="M576.008,283.876c74.953,17.683 123.718,44.053 123.718,64.797c-0,34.427 -134.303,62.377 -299.726,62.377c-165.423,-0 -299.726,-27.95 -299.726,-62.377c0,-20.744 48.765,-47.114 123.718,-64.797c0.867,6.945 5.5,13.062 12.339,15.622c49.733,18.615 105.195,29.039 163.668,29.039c58.475,0 113.937,-10.424 163.669,-29.039c6.839,-2.56 11.472,-8.677 12.339,-15.622l0.001,-0Zm-298.963,57.101c-9.079,-0 -16.45,7.371 -16.45,16.45c-0,9.079 7.371,16.45 16.45,16.45c9.079,0 16.45,-7.371 16.45,-16.45c0,-9.079 -7.371,-16.45 -16.45,-16.45Zm245.91,-0c-9.079,-0 -16.45,7.371 -16.45,16.45c-0,9.079 7.371,16.45 16.45,16.45c9.079,0 16.451,-7.371 16.451,-16.45c-0,-9.079 -7.372,-16.45 -16.451,-16.45Zm-122.955,10.001c-9.079,-0 -16.45,7.371 -16.45,16.45c-0,9.079 7.371,16.451 16.45,16.451c9.079,-0 16.45,-7.372 16.45,-16.451c0,-9.079 -7.371,-16.45 -16.45,-16.45Z" style="fill:#fff000;"/><path d="M400.002,651.139c-1.019,-0.121 -2.06,-0.121 -3.056,-0.363c-0.378,-0.092 -2.938,-0.713 -4.194,-2.448c-0.642,-0.886 -0.625,-1.63 -0.621,-1.781c1.031,-44.775 2.184,-89.546 3.276,-134.319c0.007,-0.283 0.047,-1.896 1.396,-3.245c0.413,-0.414 0.911,-0.76 1.45,-0.987c0.004,-0.002 1.749,-0.363 1.751,-0.363c0.583,0.121 1.199,0.131 1.747,0.363c0.538,0.227 1.036,0.573 1.449,0.987c1.345,1.344 1.389,2.959 1.396,3.242c1.209,44.77 2.184,89.546 3.277,134.319c0.005,0.232 0.033,1.37 -1.349,2.565c-1.33,1.148 -3.167,1.595 -3.466,1.667l-3.056,0.363Z" style="fill:#fff;"/><path d="M576.313,632.528c-0.942,0.405 -1.843,0.926 -2.828,1.214c-0.372,0.11 -2.9,0.852 -4.855,-0.023c-0.999,-0.446 -1.356,-1.099 -1.429,-1.232c-21.494,-39.291 -42.881,-78.641 -64.322,-117.962c-0.135,-0.248 -0.908,-1.664 -0.414,-3.508c0.152,-0.565 0.409,-1.113 0.762,-1.579c0.003,-0.004 1.334,-1.19 1.336,-1.19c0.565,-0.187 1.104,-0.486 1.694,-0.56c0.58,-0.072 1.184,-0.021 1.748,0.131c1.837,0.492 2.682,1.868 2.83,2.109c23.432,38.168 46.665,76.458 69.998,114.686c0.12,0.198 0.714,1.17 0.114,2.895c-0.578,1.66 -1.946,2.965 -2.168,3.177l-2.466,1.842Z" style="fill:#fff;"/><path d="M223.689,632.528c-0.822,-0.613 -1.723,-1.134 -2.465,-1.842c-0.281,-0.268 -2.188,-2.086 -2.408,-4.217c-0.113,-1.088 0.274,-1.724 0.353,-1.853c23.28,-38.26 46.665,-76.457 69.997,-114.685c0.147,-0.242 0.988,-1.619 2.831,-2.112c0.565,-0.152 1.169,-0.203 1.749,-0.131c0.005,0.001 1.697,0.561 1.698,0.562c0.445,0.396 0.973,0.713 1.332,1.188c0.352,0.466 0.61,1.014 0.761,1.579c0.493,1.837 -0.277,3.257 -0.412,3.506c-21.338,39.376 -42.881,78.641 -64.322,117.962c-0.111,0.203 -0.656,1.203 -2.45,1.546c-1.727,0.33 -3.541,-0.202 -3.836,-0.289l-2.828,-1.214Z" style="fill:#fff;"/><path d="M698.056,373.856c1.104,2.347 1.67,4.647 1.67,6.882c-0,34.426 -134.303,70.025 -299.726,70.025c-165.423,-0 -299.726,-35.599 -299.726,-70.025c0,-2.235 0.566,-4.535 1.67,-6.882c15.896,31.321 143.37,55.76 298.054,55.76c154.685,0 282.158,-24.439 298.054,-55.76l0.004,0Z" style="fill:#fff000;"/><path d="M251.967,280.397c12.428,-74.707 74.02,-131.536 148.034,-131.536c74.014,0 135.606,56.829 148.035,131.536c-44.981,17.848 -95.148,27.819 -148.035,27.819c-52.887,-0 -103.053,-9.971 -148.034,-27.819Zm90.323,-101.788c-24.571,11.951 -49.36,37.476 -64.309,72.096c-1.963,4.546 0.134,9.83 4.68,11.794c4.546,1.962 9.831,-0.135 11.794,-4.681c13.019,-30.15 34.285,-52.665 55.683,-63.072c4.453,-2.166 6.31,-7.54 4.144,-11.993c-2.166,-4.453 -7.539,-6.31 -11.992,-4.144Z" style="fill:#fff;"/></svg>