<?xml version="1.0" encoding="UTF-8" standalone="no"?><!DOCTYPE svg PUBLIC "-//W3C//DTD SVG 1.1//EN" "http://www.w3.org/Graphics/SVG/1.1/DTD/svg11.dtd"><svg width="100%" height="100%" viewBox="0 0 8909 7513" version="1.1" xmlns="http://www.w3.org/2000/svg" xmlns:xlink="http://www.w3.org/1999/xlink" xml:space="preserve" xmlns:serif="http://www.serif.com/" style="fill-rule:evenodd;clip-rule:evenodd;stroke-linejoin:round;stroke-miterlimit:2;"><path d="M7165.67,4512.92c-648.184,345.945 -1612.1,565.35 -2687.32,565.35c-1102.71,-0 -2088.35,-230.771 -2736.42,-592.134c762.479,150.988 1729.94,247.913 2782.12,247.913c988.575,-0 1902.36,-85.559 2641.61,-221.129Z" style="fill:#d58a00;"/><path d="M7069.17,2006.26c1113.78,262.771 1838.39,654.613 1838.39,962.863c0,511.562 -1995.67,926.887 -4453.79,926.887c-2458.11,0 -4453.79,-415.325 -4453.79,-926.887c-0,-308.25 724.617,-700.092 1838.39,-962.863c12.88,103.196 81.725,194.105 183.35,232.142c739.009,276.608 1563.15,431.504 2432.05,431.504c868.9,0 1693.04,-154.896 2432.05,-431.504c101.625,-38.038 170.471,-128.946 183.35,-232.142l0.013,0Zm-4442.46,848.492c-134.912,0 -244.446,109.529 -244.446,244.442c0,134.912 109.534,244.446 244.446,244.446c134.909,-0 244.442,-109.534 244.442,-244.446c-0,-134.913 -109.533,-244.442 -244.442,-244.442Zm3654.12,0c-134.912,0 -244.446,109.529 -244.446,244.442c0,134.912 109.534,244.446 244.446,244.446c134.913,-0 244.446,-109.534 244.446,-244.446c-0,-134.913 -109.533,-244.442 -244.446,-244.442Zm-1827.06,148.617c-134.913,-0 -244.442,109.533 -244.442,244.441c-0,134.913 109.529,244.446 244.442,244.446c134.912,0 244.445,-109.533 244.445,-244.446c0,-134.908 -109.533,-244.441 -244.445,-244.441Z" style="fill:#d58a00;"/><path d="M4453.79,7463.62c-15.138,-1.796 -30.6,-1.792 -45.413,-5.387c-5.608,-1.363 -43.654,-10.596 -62.316,-36.375c-9.534,-13.171 -9.28,-24.225 -9.23,-26.467c15.33,-665.334 32.459,-1330.62 48.688,-1995.93c0.104,-4.2 0.687,-28.163 20.742,-48.217c6.141,-6.142 13.537,-11.292 21.537,-14.671c0.067,-0.025 26,-5.392 26.033,-5.383c8.655,1.787 17.813,1.95 25.955,5.383c8,3.379 15.391,8.529 21.533,14.671c19.983,19.979 20.629,43.979 20.742,48.175c17.958,665.267 32.458,1330.62 48.687,1995.93c0.087,3.442 0.5,20.358 -20.042,38.104c-19.762,17.071 -47.058,23.7 -51.504,24.779l-45.412,5.388Z" style="fill:#d58a00;"/><path d="M7073.71,7187.08c-14.008,6.017 -27.395,13.75 -42.025,18.042c-5.537,1.625 -43.104,12.65 -72.154,-0.342c-14.841,-6.637 -20.15,-16.341 -21.225,-18.308c-319.391,-583.858 -637.2,-1168.58 -955.8,-1752.87c-2.012,-3.683 -13.487,-24.729 -6.146,-52.125c2.246,-8.392 6.075,-16.546 11.317,-23.471c0.042,-0.058 19.821,-17.675 19.854,-17.683c8.388,-2.775 16.4,-7.217 25.167,-8.313c8.621,-1.075 17.596,-0.312 25.983,1.938c27.296,7.312 39.854,27.771 42.05,31.35c348.188,567.158 693.421,1136.12 1040.13,1704.18c1.792,2.942 10.609,17.383 1.692,43.021c-8.579,24.667 -28.904,44.058 -32.212,47.212l-36.634,27.371Z" style="fill:#d58a00;"/><path d="M1833.87,7187.08c-12.213,-9.12 -25.604,-16.85 -36.638,-27.37c-4.175,-3.984 -32.504,-31.005 -35.779,-62.663c-1.675,-16.171 4.075,-25.617 5.242,-27.533c345.941,-568.529 693.42,-1136.12 1040.13,-1704.18c2.187,-3.583 14.675,-24.045 42.071,-31.383c8.391,-2.25 17.366,-3.012 25.983,-1.937c0.075,0.008 25.217,8.329 25.242,8.354c6.6,5.875 14.454,10.596 19.783,17.641c5.237,6.925 9.067,15.08 11.317,23.471c7.312,27.292 -4.125,48.4 -6.125,52.092c-317.084,585.112 -637.2,1168.58 -955.8,1752.87c-1.65,3.021 -9.75,17.875 -36.413,22.975c-25.65,4.904 -52.604,-3.004 -56.991,-4.292l-42.021,-18.042Z" style="fill:#d58a00;"/><path d="M8882.75,3343.33c16.4,34.875 24.808,69.05 24.808,102.258c0,511.563 -1995.67,1040.54 -4453.79,1040.54c-2458.11,0 -4453.79,-528.979 -4453.79,-1040.54c0,-33.208 8.408,-67.383 24.804,-102.258c236.217,465.417 2130.42,828.575 4428.96,828.575c2298.56,0 4192.75,-363.158 4428.96,-828.575l0.054,-0Z" style="fill:#d58a00;"/><path d="M2254.06,1954.56c184.68,-1110.12 1099.91,-1954.56 2199.72,-1954.56c1099.82,0 2015.05,844.446 2199.73,1954.56c-668.396,265.212 -1413.85,413.379 -2199.73,413.379c-785.875,-0 -1531.33,-148.167 -2199.72,-413.379Zm1342.16,-1512.53c-365.117,177.583 -733.467,556.875 -955.604,1071.32c-29.167,67.55 1.991,146.075 69.546,175.246c67.55,29.167 146.075,-1.992 175.245,-69.546c193.459,-448.016 509.459,-782.583 827.434,-937.233c66.171,-32.183 93.762,-112.033 61.579,-178.204c-32.183,-66.171 -112.033,-93.763 -178.2,-61.579Z" style="fill:#d58a00;"/></svg>