<?xml version="1.0" encoding="UTF-8" standalone="no"?><!DOCTYPE svg PUBLIC "-//W3C//DTD SVG 1.1//EN" "http://www.w3.org/Graphics/SVG/1.1/DTD/svg11.dtd"><svg width="100%" height="100%" viewBox="0 0 512 512" version="1.1" xmlns="http://www.w3.org/2000/svg" xmlns:xlink="http://www.w3.org/1999/xlink" xml:space="preserve" xmlns:serif="http://www.serif.com/" style="fill-rule:evenodd;clip-rule:evenodd;stroke-linejoin:round;stroke-miterlimit:2;"><path d="M409.188,408.518l-187.281,-107.069l-32.183,22.675l157.778,168.829c42.985,-23.855 70.586,-53.947 61.686,-84.435Z" style="fill:#ff9000;"/><path d="M457.468,248.787l-212.902,-0l-13.151,-25.709l201.309,-86.562c20.888,39.368 29.211,76.803 24.744,112.271Z" style="fill:#ff9000;"/><path d="M457.468,269.451l-226.053,-2.925l0,25.709l201.309,89.487c20.888,-39.368 29.211,-76.803 24.744,-112.271Z" style="fill:#ffd000;"/><path d="M418.697,103.482l-187.282,107.069l-24.137,-31.147l149.732,-160.357c28.583,18.934 59.626,49.118 61.687,84.435Z" style="fill:#ffd000;"/><circle cx="148.963" cy="248.787" r="95.602" style="fill:url(#_Linear1);"/><defs><linearGradient id="_Linear1" x1="0" y1="0" x2="1" y2="0" gradientUnits="userSpaceOnUse" gradientTransform="matrix(191.205,-2.84217e-14,2.84217e-14,191.205,53.3608,248.787)"><stop offset="0" style="stop-color:#9c4800;stop-opacity:1"/><stop offset="1" style="stop-color:#ff9000;stop-opacity:1"/></linearGradient></defs></svg>