<?xml version="1.0" encoding="UTF-8" standalone="no"?><!DOCTYPE svg PUBLIC "-//W3C//DTD SVG 1.1//EN" "http://www.w3.org/Graphics/SVG/1.1/DTD/svg11.dtd"><svg width="100%" height="100%" viewBox="0 0 12 12" version="1.1" xmlns="http://www.w3.org/2000/svg" xmlns:xlink="http://www.w3.org/1999/xlink" xml:space="preserve" xmlns:serif="http://www.serif.com/" style="fill-rule:evenodd;clip-rule:evenodd;stroke-linejoin:round;stroke-miterlimit:2;"><path d="M5.966,0.5l-0.164,0.245l0.542,0.566l-0.207,0.432c0.551,0.078 0.968,0.482 0.968,0.973l0,1.923l1.177,-0c0.005,-0.052 0.008,-0.104 0.008,-0.157l0,-2.077c0,-1.054 -1.036,-1.902 -2.324,-1.905l0,-0Zm-0.797,0.027c-1.104,0.152 -1.94,0.932 -1.94,1.878l0,2.077c0,0.053 0.004,0.105 0.009,0.157l1.176,-0l0,-1.923c0,-0.514 0.456,-0.933 1.043,-0.983l0.276,-0.384l-0.7,-0.588l0.136,-0.234Z" style="fill:#c00;fill-rule:nonzero;"/><path d="M3.268,4.578c-0.624,0 -1.127,0.502 -1.127,1.126l0,4.19c0,0.624 0.503,1.126 1.127,1.126l4.984,0c0.624,0 1.127,-0.502 1.127,-1.126l-0,-3.93l-1.577,0.638l-0.529,1.995l-1.561,1.358l1.066,-1.478l0.074,-2.632l1.986,-1.104c-0.17,-0.103 -0.371,-0.163 -0.586,-0.163l-4.984,0Z" style="fill:#c00;fill-rule:nonzero;"/></svg>