<?xml version="1.0" encoding="UTF-8" standalone="no"?><!DOCTYPE svg PUBLIC "-//W3C//DTD SVG 1.1//EN" "http://www.w3.org/Graphics/SVG/1.1/DTD/svg11.dtd"><svg width="100%" height="100%" viewBox="0 0 8892 8892" version="1.1" xmlns="http://www.w3.org/2000/svg" xmlns:xlink="http://www.w3.org/1999/xlink" xml:space="preserve" xmlns:serif="http://www.serif.com/" style="fill-rule:evenodd;clip-rule:evenodd;stroke-linecap:round;stroke-linejoin:round;stroke-miterlimit:1.5;"><path d="M8272.5,3423.9l0,1688.81c0,414.321 -66.267,710.65 -102.046,1132.45c-12.404,146.263 12.75,265.796 41.904,416.296c452.013,2333.29 259.634,2141.72 -952.408,896.592c-196.075,-201.425 -400.883,114.766 -640.487,235.483c-405.084,204.092 -862.638,319.05 -1346.83,319.05l-1819.96,0c-1655.67,0 -2999.87,-1344.2 -2999.87,-2999.87l0,-1688.81c0,-1655.67 1344.2,-2999.86 2999.87,-2999.86l1819.96,0c1655.67,0 2999.86,1344.19 2999.86,2999.86Z" style="fill:url(#_Linear1);"/><circle cx="4444.42" cy="5305.31" r="1005.45" style="fill:none;stroke:#1b2129;stroke-width:416.67px;"/><path d="M2963.95,2580.91c316.38,0 572.858,256.479 572.858,572.859c0,316.38 -256.478,572.858 -572.858,572.858c-316.38,0 -572.859,-256.478 -572.859,-572.858c0,-316.38 256.479,-572.859 572.859,-572.859" style="fill:#1b2129;"/><path d="M5924.9,2580.91c316.381,0 572.859,256.479 572.859,572.859c-0,316.38 -256.478,572.858 -572.859,572.858c-316.38,0 -572.858,-256.478 -572.858,-572.858c-0,-316.38 256.478,-572.859 572.858,-572.859" style="fill:#1b2129;"/><defs><linearGradient id="_Linear1" x1="0" y1="0" x2="1" y2="0" gradientUnits="userSpaceOnUse" gradientTransform="matrix(7662.88,0,0,7662.88,452.829,4444.46)"><stop offset="0" style="stop-color:#f4b137;stop-opacity:1"/><stop offset="1" style="stop-color:#ffa500;stop-opacity:1"/></linearGradient></defs></svg>