<?xml version="1.0" encoding="UTF-8" standalone="no"?><!DOCTYPE svg PUBLIC "-//W3C//DTD SVG 1.1//EN" "http://www.w3.org/Graphics/SVG/1.1/DTD/svg11.dtd"><svg width="100%" height="100%" viewBox="0 0 8892 8892" version="1.1" xmlns="http://www.w3.org/2000/svg" xmlns:xlink="http://www.w3.org/1999/xlink" xml:space="preserve" xmlns:serif="http://www.serif.com/" style="fill-rule:evenodd;clip-rule:evenodd;stroke-linecap:round;stroke-linejoin:round;stroke-miterlimit:1.5;"><path d="M8272.5,3423.9l0,1688.81c0,414.321 -66.267,710.65 -102.046,1132.45c-12.404,146.263 12.75,265.796 41.904,416.296c452.013,2333.29 259.634,2141.72 -952.408,896.592c-196.075,-201.425 -400.883,114.766 -640.487,235.483c-405.084,204.092 -862.638,319.05 -1346.83,319.05l-1819.96,0c-1655.67,0 -2999.87,-1344.2 -2999.87,-2999.87l0,-1688.81c0,-1655.67 1344.2,-2999.86 2999.87,-2999.86l1819.96,0c1655.67,0 2999.86,1344.19 2999.86,2999.86Z" style="fill:url(#_Linear1);"/><path d="M3706.41,6011.18c1285.46,419.082 2144.17,11.235 2593.77,-1189.36" style="fill:none;stroke:#1b2129;stroke-width:625px;"/><path d="M6300.18,3089c316.38,0 572.858,256.479 572.858,572.859c0,316.38 -256.478,572.859 -572.858,572.859c-316.38,-0 -572.859,-256.479 -572.859,-572.859c0,-316.38 256.479,-572.859 572.859,-572.859" style="fill:#1b2129;"/><path d="M3446.72,3089c316.38,0 572.859,256.479 572.859,572.859c-0,316.38 -256.479,572.859 -572.859,572.859c-316.38,-0 -572.859,-256.479 -572.859,-572.859c0,-316.38 256.479,-572.859 572.859,-572.859" style="fill:#1b2129;"/><path d="M6300.18,3420.43c-650.635,49.701 -1029.1,137.403 -1323.42,416.231" style="fill:none;stroke:#1b2129;stroke-width:625px;"/><path d="M3446.72,3420.43c-650.635,49.701 -1029.1,137.403 -1323.41,416.231" style="fill:none;stroke:#1b2129;stroke-width:625px;"/><path d="M3546.27,2070.04c-2.949,13.647 -4.556,27.655 -8.847,40.941c-4.177,12.935 -9.768,25.473 -16.427,37.323c-3.13,5.569 -19.745,35.135 -51.818,60.769c-32.073,25.633 -64.678,35.402 -70.81,37.238c-13.072,3.917 -26.58,6.641 -40.167,7.91c-33.628,3.141 -33.732,1.305 -66.899,-5.145c-552.053,-107.354 -948.999,-59.403 -1201.05,283.914c-10.864,14.797 -10.789,14.852 -11.862,16.033c-3.453,3.797 -23.163,25.476 -58.055,27.307c-16.988,0.891 -30.194,-3.796 -32.683,-4.68c-4.948,-1.756 -33.608,-11.929 -48.566,-44.134c-14.685,-31.62 -5.002,-59.321 -3.306,-64.173c0.314,-0.898 33.319,-75.099 93.665,-158.814c302.163,-419.171 841.852,-480.272 1332.79,-464.65c15.156,0.482 37.997,7.842 41.207,8.876c11.994,3.865 80.448,25.922 120.233,101.771c6.238,11.892 11.401,24.425 15.224,37.298c5.989,20.161 7.49,36.894 7.782,40.153l-0.415,42.063Z" style="fill:#1b2129;"/><path d="M4769.72,2070.04c-0.138,-14.021 -1.666,-28.097 -0.415,-42.063c1.217,-13.579 3.9,-27.084 7.782,-40.153c1.821,-6.131 11.503,-38.725 37.137,-70.798c25.633,-32.073 55.292,-48.702 60.871,-51.83c11.891,-6.667 24.473,-12.26 37.45,-16.441c30.11,-9.702 30.496,-8.627 62.113,-9.491c513.928,-14.053 1085.06,59.734 1368.93,553.782c16.025,27.89 27.022,50.058 29.351,54.684c3.885,7.711 4.417,7.464 7.265,15.613c1.696,4.852 11.379,32.553 -3.306,64.173c-7.149,15.392 -17.386,24.788 -19.322,26.565c-3.878,3.559 -26.28,24.119 -61.927,22.249c-34.896,-1.831 -54.602,-23.51 -58.054,-27.307c-10.216,-11.239 -82.678,-127.893 -225.541,-218.675c-262.484,-166.795 -615.098,-155.891 -1012.26,-76.355c-14.125,2.829 -38.658,0.54 -42.004,0.228c-12.556,-1.171 -84.21,-7.856 -139.732,-72.969c-8.698,-10.201 -16.495,-21.261 -23.063,-32.948c-10.279,-18.292 -15.424,-34.218 -16.427,-37.323l-8.847,-40.941Z" style="fill:#1b2129;"/><defs><linearGradient id="_Linear1" x1="0" y1="0" x2="1" y2="0" gradientUnits="userSpaceOnUse" gradientTransform="matrix(7662.88,0,0,7662.88,452.829,4444.46)"><stop offset="0" style="stop-color:#f4b137;stop-opacity:1"/><stop offset="1" style="stop-color:#ffa500;stop-opacity:1"/></linearGradient></defs></svg>