<?xml version="1.0" encoding="UTF-8" standalone="no"?><!DOCTYPE svg PUBLIC "-//W3C//DTD SVG 1.1//EN" "http://www.w3.org/Graphics/SVG/1.1/DTD/svg11.dtd"><svg width="100%" height="100%" viewBox="0 0 3 3" version="1.1" xmlns="http://www.w3.org/2000/svg" xmlns:xlink="http://www.w3.org/1999/xlink" xml:space="preserve" xmlns:serif="http://www.serif.com/" style="fill-rule:evenodd;clip-rule:evenodd;stroke-linejoin:round;stroke-miterlimit:2;"><path d="M1.5,2.904c-0.77,-0 -1.404,-0.634 -1.404,-1.404c0,-0.77 0.634,-1.404 1.404,-1.404c0.77,0 1.404,0.634 1.404,1.404c-0,0.77 -0.634,1.404 -1.404,1.404Zm0,-1.965l0,0.505l-0.379,0.379c-0.035,0.027 -0.056,0.068 -0.056,0.112c-0,0.077 0.063,0.14 0.14,0.14c0.045,0 0.086,-0.021 0.113,-0.056l0.421,-0.421c0.027,-0.025 0.042,-0.061 0.042,-0.098l-0,-0.561c-0,-0.078 -0.063,-0.141 -0.141,-0.141c-0.077,0 -0.14,0.063 -0.14,0.141Z" style="fill:#ff8c00;fill-rule:nonzero;stroke:#000;stroke-width:0.17px;"/></svg>