<?xml version="1.0" encoding="UTF-8" standalone="no"?><!DOCTYPE svg PUBLIC "-//W3C//DTD SVG 1.1//EN" "http://www.w3.org/Graphics/SVG/1.1/DTD/svg11.dtd"><svg width="100%" height="100%" viewBox="0 0 435 438" version="1.1" xmlns="http://www.w3.org/2000/svg" xmlns:xlink="http://www.w3.org/1999/xlink" xml:space="preserve" xmlns:serif="http://www.serif.com/" style="fill-rule:evenodd;clip-rule:evenodd;stroke-linecap:round;stroke-linejoin:round;stroke-miterlimit:1.5;"><path d="M425.401,163.196l-0,91.874c-0,22.539 -3.605,38.66 -5.552,61.606c-0.674,7.957 0.694,14.46 2.28,22.647c24.59,126.934 14.125,116.512 -51.812,48.776c-10.667,-10.958 -21.809,6.243 -34.843,12.811c-22.037,11.102 -46.929,17.356 -73.269,17.356l-99.009,0c-90.07,0 -163.196,-73.126 -163.196,-163.196l0,-91.874c0,-90.07 73.126,-163.196 163.196,-163.196l99.009,0c90.07,0 163.196,73.126 163.196,163.196Z" style="fill:url(#_Linear1);"/><ellipse cx="217.149" cy="275.732" rx="50.586" ry="50.58" style="fill:none;stroke:#1b2129;stroke-width:29.97px;"/><g><path d="M196.417,178.145l-9.051,9.05c-2.497,2.498 -6.553,2.498 -9.051,0l-80.869,-80.869c-2.498,-2.498 -2.498,-6.553 -0,-9.051l9.051,-9.051c2.497,-2.498 6.553,-2.498 9.051,-0l80.869,80.87c2.498,2.497 2.498,6.553 0,9.051Z" style="fill:#1b2129;"/><path d="M97.446,178.145l9.051,9.05c2.497,2.498 6.553,2.498 9.051,0l80.869,-80.869c2.498,-2.498 2.498,-6.553 0,-9.051l-9.051,-9.051c-2.497,-2.498 -6.553,-2.498 -9.051,-0l-80.869,80.87c-2.498,2.497 -2.498,6.553 -0,9.051Z" style="fill:#1b2129;"/></g><g><path d="M336.852,178.145l-9.051,9.05c-2.498,2.498 -6.554,2.498 -9.051,0l-80.87,-80.869c-2.498,-2.498 -2.498,-6.553 0,-9.051l9.051,-9.051c2.498,-2.498 6.553,-2.498 9.051,-0l80.87,80.87c2.497,2.497 2.497,6.553 -0,9.051Z" style="fill:#1b2129;"/><path d="M237.88,178.145l9.051,9.05c2.498,2.498 6.553,2.498 9.051,0l80.87,-80.869c2.497,-2.498 2.497,-6.553 -0,-9.051l-9.051,-9.051c-2.498,-2.498 -6.554,-2.498 -9.051,-0l-80.87,80.87c-2.498,2.497 -2.498,6.553 0,9.051Z" style="fill:#1b2129;"/></g><defs><linearGradient id="_Linear1" x1="0" y1="0" x2="1" y2="0" gradientUnits="userSpaceOnUse" gradientTransform="matrix(416.87,0,0,416.87,0,218.715)"><stop offset="0" style="stop-color:#f4b137;stop-opacity:1"/><stop offset="1" style="stop-color:#ffa500;stop-opacity:1"/></linearGradient></defs></svg>