<?xml version="1.0" encoding="UTF-8" standalone="no"?><!DOCTYPE svg PUBLIC "-//W3C//DTD SVG 1.1//EN" "http://www.w3.org/Graphics/SVG/1.1/DTD/svg11.dtd"><svg width="100%" height="100%" viewBox="0 0 431 345" version="1.1" xmlns="http://www.w3.org/2000/svg" xmlns:xlink="http://www.w3.org/1999/xlink" xml:space="preserve" xmlns:serif="http://www.serif.com/" style="fill-rule:evenodd;clip-rule:evenodd;stroke-linecap:round;stroke-linejoin:round;stroke-miterlimit:1.5;"><g transform="matrix(147.04,0,0,147.04,269.579,274.268)"></g><text x="185.289px" y="274.268px" style="font-family:'ArialRoundedMTBold', 'Arial Rounded MT Bold', sans-serif;font-size:147.04px;fill:#a5b4fc;">?</text><circle cx="227.649" cy="221.57" r="115.2" style="fill:none;stroke:#a5b4fc;stroke-width:16.01px;"/><g transform="matrix(0.92019,-0.391472,0.391472,0.92019,8.11669,-37.0851)"><g transform="matrix(95.2245,0,0,95.2245,64.5485,155.023)"></g><text x="9.962px" y="155.023px" style="font-family:'ArialRoundedMTBold', 'Arial Rounded MT Bold', sans-serif;font-size:95.224px;fill:#a5b4fc;">?</text></g><g transform="matrix(0.831981,-0.554804,0.554804,0.831981,-75.9578,-69.6309)"><g transform="matrix(95.2245,0,0,95.2245,-1.49822,284.064)"></g><text x="-56.085px" y="284.064px" style="font-family:'ArialRoundedMTBold', 'Arial Rounded MT Bold', sans-serif;font-size:95.224px;fill:#a5b4fc;">?</text></g><g transform="matrix(0.939142,0.343528,-0.343528,0.939142,-34.1879,-109.619)"><g transform="matrix(95.2245,0,0,95.2245,443.737,42.1711)"></g><text x="389.15px" y="42.171px" style="font-family:'ArialRoundedMTBold', 'Arial Rounded MT Bold', sans-serif;font-size:95.224px;fill:#a5b4fc;">?</text></g><g transform="matrix(0.782226,0.622995,-0.622995,0.782226,62.7231,-252.247)"><g transform="matrix(95.2245,0,0,95.2245,543.611,157.066)"></g><text x="489.024px" y="157.066px" style="font-family:'ArialRoundedMTBold', 'Arial Rounded MT Bold', sans-serif;font-size:95.224px;fill:#a5b4fc;">?</text></g><g transform="matrix(0.967882,0.251404,-0.251404,0.967882,35.2897,-73.009)"><g transform="matrix(95.2245,0,0,95.2245,454.829,295.084)"></g><text x="400.242px" y="295.084px" style="font-family:'ArialRoundedMTBold', 'Arial Rounded MT Bold', sans-serif;font-size:95.224px;fill:#a5b4fc;">?</text></g><g transform="matrix(0.975395,-0.220466,0.220466,0.975395,-33.7772,-16.7046)"><g transform="matrix(95.2245,0,0,95.2245,59.7164,336.444)"></g><text x="5.13px" y="336.444px" style="font-family:'ArialRoundedMTBold', 'Arial Rounded MT Bold', sans-serif;font-size:95.224px;fill:#a5b4fc;">?</text></g><g transform="matrix(0.998452,-0.0556199,0.0556199,0.998452,6.08323,4.4453)"><g transform="matrix(95.2245,0,0,95.2245,234.345,86.4083)"></g><text x="179.758px" y="86.408px" style="font-family:'ArialRoundedMTBold', 'Arial Rounded MT Bold', sans-serif;font-size:95.224px;fill:#a5b4fc;">?</text></g></svg>