<?xml version="1.0" encoding="UTF-8" standalone="no"?><!DOCTYPE svg PUBLIC "-//W3C//DTD SVG 1.1//EN" "http://www.w3.org/Graphics/SVG/1.1/DTD/svg11.dtd"><svg width="100%" height="100%" viewBox="0 0 468 350" version="1.1" xmlns="http://www.w3.org/2000/svg" xmlns:xlink="http://www.w3.org/1999/xlink" xml:space="preserve" xmlns:serif="http://www.serif.com/" style="fill-rule:evenodd;clip-rule:evenodd;stroke-linecap:round;stroke-linejoin:round;stroke-miterlimit:1.5;"><path d="M369.677,160.425l-0,125.778c-0,34.71 -28.18,62.889 -62.89,62.889l-243.398,0c-34.709,0 -62.889,-28.179 -62.889,-62.889l-0,-125.778c-0,-34.71 28.18,-62.889 62.889,-62.889l243.398,-0c34.71,-0 62.89,28.179 62.89,62.889Zm-257.518,53.666c-0,3.521 -0.054,6.298 -0.163,8.329c-0.108,2.032 -0.189,3.589 -0.243,4.672l-0.569,9.995l8.613,-0.081c0.65,-0 2.736,0.081 6.257,0.244l-0.894,17.633c-5.742,1.408 -11.024,2.113 -15.845,2.113c-5.796,-0 -11.051,-1.138 -15.764,-3.413c-4.713,-2.276 -8.153,-5.594 -10.32,-9.954c-2.167,-4.361 -3.25,-9.332 -3.25,-14.911c-0,-5.472 0.948,-10.672 2.844,-15.602c1.896,-4.93 4.753,-9.169 8.572,-12.717c3.82,-3.548 8.384,-6.176 13.693,-7.882c5.308,-1.706 10.942,-2.56 16.901,-2.56c2.275,0 4.862,0.136 7.76,0.407c2.899,0.271 5.959,0.69 9.183,1.259c3.223,0.569 6.04,1.192 8.45,1.869c2.411,0.677 5.567,1.666 9.467,2.966c-0.704,-9.697 -1.056,-18.5 -1.056,-26.409c-14.41,-2.871 -27.547,-4.307 -39.411,-4.307c-16.251,0 -29.51,2.75 -39.776,8.248c-10.265,5.499 -18.134,12.961 -23.605,22.387c-5.471,9.426 -8.207,19.637 -8.207,30.634c-0,6.663 1.016,13.11 3.047,19.34c2.032,6.229 4.916,11.62 8.654,16.17c3.738,4.551 8.41,8.153 14.017,10.807c5.607,2.655 11.959,4.578 19.055,5.77c7.097,1.192 14.329,1.787 21.696,1.787c4.496,0 9.616,-0.203 15.358,-0.609c5.742,-0.406 10.658,-0.867 14.748,-1.381c4.09,-0.515 9.25,-1.341 15.48,-2.479c0.163,-6.934 0.609,-17.199 1.341,-30.797c0.731,-13.597 1.449,-24.106 2.153,-31.528c-6.501,0.108 -15.493,0.163 -26.978,0.163c-6.717,-0 -13.786,-0.055 -21.208,-0.163Zm64.925,64.682c10.076,-0.109 16.74,-0.163 19.99,-0.163l16.658,0.163c-0,-9.318 0.162,-20.572 0.487,-33.763c0.325,-13.191 0.867,-27.371 1.626,-42.539c0.595,-10.888 1.381,-22.427 2.356,-34.616c-10.184,0.109 -16.008,0.163 -17.47,0.163c-3.197,-0 -9.535,-0.054 -19.015,-0.163l0.081,10.482c0,23.457 -1.571,56.935 -4.713,100.436Zm56.881,-0c11.322,-0.109 17.66,-0.163 19.015,-0.163l17.47,0.163l0,-3.576l0.081,-10.888l0.813,-29.253c8.451,-0.271 16.252,-0.407 23.402,-0.407c4.226,0 10.699,0.136 19.421,0.407c0,-5.797 0.298,-13.814 0.894,-24.053c-7.801,0.163 -13.597,0.244 -17.389,0.244l-13.164,0l-11.783,-0.244l0.732,-18.933c8.938,-0.108 14.328,-0.162 16.17,-0.162l16.008,-0l11.376,0.162l7.07,0.244c-0,-3.846 0.433,-11.999 1.3,-24.459c-13.056,0.109 -26.653,0.163 -40.792,0.163c-14.031,-0 -29.199,-0.054 -45.505,-0.163l0,8.939c0,5.959 -0.298,17.565 -0.893,34.819c-0.596,17.254 -1.219,30.81 -1.869,40.67c-0.434,6.663 -1.219,15.493 -2.357,26.49Z" style="fill:#888;stroke:#74c0fc;stroke-width:1px;"/><path d="M331.535,23.198c1.558,-8.53 8.989,-14.727 17.66,-14.727c8.671,-0 16.103,6.197 17.661,14.727l11.904,65.17l65.17,11.904c8.529,1.558 14.726,8.989 14.726,17.66c0,8.671 -6.197,16.102 -14.726,17.66l-65.17,11.904l-11.904,65.17c-1.558,8.53 -8.99,14.727 -17.661,14.727c-8.671,0 -16.102,-6.197 -17.66,-14.727l-11.904,-65.17l-65.17,-11.904c-8.53,-1.558 -14.727,-8.989 -14.727,-17.66c-0,-8.671 6.197,-16.102 14.727,-17.66l65.17,-11.904l11.904,-65.17Z" style="fill:#888;stroke:#000;stroke-width:16.94px;"/></svg>