<?xml version="1.0" encoding="UTF-8" standalone="no"?><!DOCTYPE svg PUBLIC "-//W3C//DTD SVG 1.1//EN" "http://www.w3.org/Graphics/SVG/1.1/DTD/svg11.dtd"><svg width="100%" height="100%" viewBox="0 0 512 512" version="1.1" xmlns="http://www.w3.org/2000/svg" xmlns:xlink="http://www.w3.org/1999/xlink" xml:space="preserve" xmlns:serif="http://www.serif.com/" style="fill-rule:evenodd;clip-rule:evenodd;stroke-linejoin:round;stroke-miterlimit:2;"><g><path d="M464.252,200.481l0,91.873c0,22.54 -3.605,38.661 -5.551,61.607c-0.675,7.957 0.693,14.459 2.279,22.647c24.59,126.934 14.125,116.512 -51.812,48.776c-10.667,-10.958 -21.809,6.243 -34.843,12.81c-22.037,11.103 -46.929,17.357 -73.269,17.357l-99.008,-0c-90.071,-0 -163.197,-73.126 -163.197,-163.197l0,-91.873c0,-90.071 73.126,-163.196 163.197,-163.196l99.008,-0c90.07,-0 163.196,73.125 163.196,163.196Z" style="fill:url(#_Linear1);"/><circle cx="185.489" cy="203.435" r="23.543" style="fill:#1b2129;"/><circle cx="307.177" cy="203.435" r="23.543" style="fill:#1b2129;"/><path d="M167.133,269.734c-0.809,-3.308 -0.053,-6.804 2.049,-9.482c2.103,-2.679 5.319,-4.243 8.725,-4.243c5.958,-0.009 12.975,-0.009 18.492,-0.009c4.941,0 9.287,3.266 10.661,8.012c4.303,14.712 20.25,25.626 39.261,25.626c19.011,-0 34.958,-10.914 39.282,-25.62c1.372,-4.737 5.709,-7.996 10.64,-7.996c5.517,-0.022 12.534,-0.022 18.493,-0.022c3.408,-0 6.627,1.565 8.731,4.246c2.105,2.681 2.861,6.179 2.052,9.49c-7.632,30.566 -40.19,53.539 -79.198,53.539c-39.008,0 -71.566,-22.973 -79.188,-53.541Z" style="fill:#1b2129;"/></g><defs><linearGradient id="_Linear1" x1="0" y1="0" x2="1" y2="0" gradientUnits="userSpaceOnUse" gradientTransform="matrix(416.87,0,0,416.87,38.8512,256)"><stop offset="0" style="stop-color:#f4b137;stop-opacity:1"/><stop offset="1" style="stop-color:#ffa500;stop-opacity:1"/></linearGradient></defs></svg>