<?xml version="1.0" encoding="UTF-8" standalone="no"?><!DOCTYPE svg PUBLIC "-//W3C//DTD SVG 1.1//EN" "http://www.w3.org/Graphics/SVG/1.1/DTD/svg11.dtd"><svg width="100%" height="100%" viewBox="0 0 3508 2481" version="1.1" xmlns="http://www.w3.org/2000/svg" xmlns:xlink="http://www.w3.org/1999/xlink" xml:space="preserve" xmlns:serif="http://www.serif.com/" style="fill-rule:evenodd;clip-rule:evenodd;stroke-linejoin:round;stroke-miterlimit:2;"><path d="M2404.78,1435.81c-155.565,83.027 -386.904,135.684 -644.956,135.684c-264.651,0 -501.205,-55.384 -656.74,-142.112c182.995,36.238 415.184,59.499 667.709,59.499c237.259,0 456.566,-20.533 633.987,-53.071Z" style="fill:#fff;"/><path d="M2381.63,834.218c267.306,63.064 441.213,157.106 441.213,231.087c0,122.775 -478.961,222.453 -1068.91,222.453c-589.947,-0 -1068.91,-99.678 -1068.91,-222.453c-0,-73.981 173.907,-168.023 441.213,-231.087c3.091,24.766 19.614,46.584 44.004,55.714c177.362,66.385 375.156,103.561 583.691,103.561c208.535,-0 406.329,-37.176 583.691,-103.561c24.39,-9.13 40.913,-30.948 44.004,-55.714Zm-1066.19,203.637c-32.379,0 -58.666,26.288 -58.666,58.667c-0,32.379 26.287,58.666 58.666,58.666c32.379,0 58.667,-26.287 58.667,-58.666c-0,-32.379 -26.288,-58.667 -58.667,-58.667Zm876.99,0c-32.379,0 -58.667,26.288 -58.667,58.667c0,32.379 26.288,58.666 58.667,58.666c32.379,0 58.666,-26.287 58.666,-58.666c0,-32.379 -26.287,-58.667 -58.666,-58.667Zm-438.495,35.668c-32.379,0 -58.667,26.288 -58.667,58.667c0,32.379 26.288,58.666 58.667,58.666c32.379,0 58.667,-26.287 58.667,-58.666c-0,-32.379 -26.288,-58.667 -58.667,-58.667Z" style="fill:#fff000;"/><path d="M1753.94,2143.99c-3.633,-0.431 -7.344,-0.43 -10.899,-1.293c-1.346,-0.327 -10.477,-2.544 -14.956,-8.73c-2.289,-3.161 -2.228,-5.814 -2.215,-6.353c3.679,-159.679 7.79,-319.348 11.685,-479.023c0.024,-1.007 0.165,-6.759 4.978,-11.572c1.474,-1.474 3.248,-2.709 5.169,-3.52c0.016,-0.007 6.24,-1.295 6.248,-1.293c2.076,0.43 4.275,0.468 6.228,1.293c1.921,0.811 3.695,2.046 5.169,3.52c4.795,4.795 4.951,10.556 4.978,11.562c4.31,159.664 7.79,319.349 11.685,479.023c0.02,0.827 0.119,4.886 -4.811,9.145c-4.742,4.097 -11.294,5.689 -12.36,5.948c-0.008,0.002 -10.895,1.293 -10.899,1.293Z" style="fill:#fff;"/><path d="M2382.72,2077.61c-3.362,1.443 -6.575,3.3 -10.086,4.33c-1.329,0.39 -10.345,3.035 -17.317,-0.083c-3.563,-1.593 -4.836,-3.921 -5.095,-4.393c-76.653,-140.126 -152.928,-280.46 -229.392,-420.689c-0.482,-0.885 -3.236,-5.936 -1.475,-12.511c0.54,-2.013 1.459,-3.97 2.717,-5.633c0.01,-0.014 4.756,-4.241 4.764,-4.244c2.013,-0.666 3.937,-1.732 6.041,-1.994c2.068,-0.258 4.223,-0.076 6.236,0.464c6.55,1.755 9.565,6.666 10.092,7.524c83.564,136.118 166.421,272.669 249.631,409.004c0.431,0.705 2.546,4.171 0.406,10.325c-2.058,5.919 -6.936,10.573 -7.73,11.331c-0.006,0.005 -8.789,6.567 -8.792,6.569Z" style="fill:#fff;"/><path d="M1125.16,2077.61c-2.93,-2.19 -6.145,-4.044 -8.792,-6.569c-1.002,-0.957 -7.801,-7.442 -8.587,-15.039c-0.402,-3.881 0.978,-6.149 1.258,-6.609c83.025,-136.447 166.42,-272.669 249.631,-409.003c0.525,-0.861 3.522,-5.771 10.097,-7.533c2.013,-0.54 4.168,-0.722 6.236,-0.464c0.018,0.002 6.052,1.999 6.058,2.004c1.583,1.411 3.468,2.543 4.747,4.234c1.258,1.663 2.177,3.62 2.717,5.633c1.755,6.55 -0.991,11.617 -1.471,12.502c-76.099,140.428 -152.927,280.459 -229.391,420.689c-0.396,0.726 -2.34,4.291 -8.739,5.514c-6.156,1.177 -12.625,-0.72 -13.678,-1.029c-0.008,-0.003 -10.082,-4.328 -10.086,-4.33Z" style="fill:#fff;"/><path d="M2816.89,1155.11c3.935,8.371 5.953,16.573 5.953,24.542c0,122.775 -478.961,249.73 -1068.91,249.73c-589.947,0 -1068.91,-126.955 -1068.91,-249.73c-0,-7.969 2.018,-16.171 5.953,-24.542c56.692,111.7 511.301,198.858 1062.95,198.858c551.654,0 1006.26,-87.158 1062.95,-198.858Z" style="fill:#fff000;"/><path d="M1226,821.81c44.324,-266.427 263.979,-469.095 527.935,-469.095c263.956,0 483.612,202.668 527.935,469.095c-160.415,63.651 -339.325,99.211 -527.935,99.211c-188.61,0 -367.52,-35.56 -527.935,-99.211Zm322.12,-363.005c-87.628,42.619 -176.032,133.649 -229.345,257.115c-7.001,16.213 0.478,35.059 16.691,42.059c16.212,7.001 35.058,-0.478 42.059,-16.69c46.429,-107.525 122.27,-187.82 198.584,-224.937c15.881,-7.724 22.503,-26.888 14.779,-42.768c-7.724,-15.881 -26.888,-22.503 -42.768,-14.779Z" style="fill:#fff;"/></svg>