<?xml version="1.0" encoding="UTF-8" standalone="no"?><!DOCTYPE svg PUBLIC "-//W3C//DTD SVG 1.1//EN" "http://www.w3.org/Graphics/SVG/1.1/DTD/svg11.dtd"><svg width="100%" height="100%" viewBox="0 0 2134 2134" version="1.1" xmlns="http://www.w3.org/2000/svg" xmlns:xlink="http://www.w3.org/1999/xlink" xml:space="preserve" xmlns:serif="http://www.serif.com/" style="fill-rule:evenodd;clip-rule:evenodd;stroke-linejoin:round;stroke-miterlimit:2;"><path d="M1985.4,821.735l0,405.315c0,99.437 -15.904,170.556 -24.491,271.787c-2.977,35.103 3.06,63.791 10.057,99.911c108.483,559.99 62.312,514.013 -228.578,215.182c-47.058,-48.342 -96.212,27.544 -153.717,56.516c-97.22,48.982 -207.033,76.572 -323.238,76.572l-436.791,0c-397.361,0 -719.968,-322.607 -719.968,-719.968l0,-405.315c0,-397.361 322.607,-719.967 719.968,-719.967l436.791,-0c397.361,-0 719.967,322.606 719.967,719.967Z" style="fill:url(#_Linear1);"/><circle cx="755.596" cy="834.767" r="103.866" style="fill:#1b2129;"/><circle cx="1292.44" cy="834.767" r="103.866" style="fill:#1b2129;"/><path d="M665.63,1096.17c-1.227,-4.794 -1.88,-9.817 -1.88,-14.991c-0,-33.292 27.029,-60.322 60.321,-60.322l611.541,0c33.292,0 60.321,27.03 60.321,60.322c0,5.174 -0.652,10.197 -1.88,14.991l0.617,-0c0,82.278 -38.449,161.186 -106.89,219.365c-142.425,121.071 -373.688,121.071 -516.113,0c-68.441,-58.179 -106.89,-137.087 -106.89,-219.365l0.853,-0Zm583.476,45.33l-438.765,0c9.705,33.935 30.209,65.275 59.739,90.377c88.11,74.899 231.177,74.899 319.287,0c29.53,-25.102 50.034,-56.442 59.739,-90.377Z" style="fill:#1b2129;"/><defs><linearGradient id="_Linear1" x1="0" y1="0" x2="1" y2="0" gradientUnits="userSpaceOnUse" gradientTransform="matrix(1839.09,0,0,1839.09,108.679,1066.67)"><stop offset="0" style="stop-color:#f4b137;stop-opacity:1"/><stop offset="1" style="stop-color:#ffa500;stop-opacity:1"/></linearGradient></defs></svg>