<?xml version="1.0" encoding="UTF-8" standalone="no"?><!DOCTYPE svg PUBLIC "-//W3C//DTD SVG 1.1//EN" "http://www.w3.org/Graphics/SVG/1.1/DTD/svg11.dtd"><svg width="100%" height="100%" viewBox="0 0 8892 8892" version="1.1" xmlns="http://www.w3.org/2000/svg" xmlns:xlink="http://www.w3.org/1999/xlink" xml:space="preserve" xmlns:serif="http://www.serif.com/" style="fill-rule:evenodd;clip-rule:evenodd;stroke-linecap:round;stroke-linejoin:round;stroke-miterlimit:1.5;"><path d="M8272.5,3423.9l0,1688.81c0,414.321 -66.267,710.65 -102.046,1132.45c-12.404,146.263 12.75,265.796 41.904,416.296c452.013,2333.29 259.634,2141.72 -952.408,896.592c-196.075,-201.425 -400.883,114.766 -640.487,235.483c-405.084,204.092 -862.638,319.05 -1346.83,319.05l-1819.96,0c-1655.67,0 -2999.87,-1344.2 -2999.87,-2999.87l0,-1688.81c0,-1655.67 1344.2,-2999.86 2999.87,-2999.86l1819.96,0c1655.67,0 2999.86,1344.19 2999.86,2999.86Z" style="fill:url(#_Linear1);"/><path d="M5466.36,1469.46l-1350.9,1370.18l-1127.52,-1370.18" style="fill:none;stroke:#1b2129;stroke-width:416.67px;"/><path d="M2777.78,5260.04c-14.801,-60.543 -0.97,-124.523 37.501,-173.534c38.488,-49.031 97.349,-77.654 159.679,-77.654c109.045,-0.165 237.472,-0.165 338.438,-0.165c90.425,0 169.97,59.771 195.114,146.631c78.755,269.253 370.61,469 718.541,469c347.94,-0 639.794,-199.747 718.931,-468.887c25.109,-86.696 104.481,-146.344 194.724,-146.344c100.974,-0.4 229.393,-0.4 338.455,-0.4c62.374,0 121.287,28.64 159.794,77.704c38.523,49.066 52.36,113.089 37.558,173.685c-139.68,559.408 -735.545,979.854 -1449.46,979.854c-713.908,0 -1309.77,-420.446 -1449.27,-979.89Z" style="fill:#1b2129;"/><path d="M2923.58,3352.21c278.576,-0 504.408,225.832 504.408,504.408c-0,278.576 -225.832,504.408 -504.408,504.408c-278.577,0 -504.409,-225.832 -504.409,-504.408c0,-278.576 225.832,-504.408 504.409,-504.408" style="fill:#1b2129;"/><path d="M5530.73,3352.21c278.576,-0 504.408,225.832 504.408,504.408c0,278.576 -225.832,504.408 -504.408,504.408c-278.576,0 -504.408,-225.832 -504.408,-504.408c0,-278.576 225.832,-504.408 504.408,-504.408" style="fill:#1b2129;"/><defs><linearGradient id="_Linear1" x1="0" y1="0" x2="1" y2="0" gradientUnits="userSpaceOnUse" gradientTransform="matrix(7662.88,0,0,7662.88,452.829,4444.46)"><stop offset="0" style="stop-color:#f4b137;stop-opacity:1"/><stop offset="1" style="stop-color:#ffa500;stop-opacity:1"/></linearGradient></defs></svg>