<?xml version="1.0" encoding="UTF-8" standalone="no"?><!DOCTYPE svg PUBLIC "-//W3C//DTD SVG 1.1//EN" "http://www.w3.org/Graphics/SVG/1.1/DTD/svg11.dtd"><svg width="100%" height="100%" viewBox="0 0 8892 8892" version="1.1" xmlns="http://www.w3.org/2000/svg" xmlns:xlink="http://www.w3.org/1999/xlink" xml:space="preserve" xmlns:serif="http://www.serif.com/" style="fill-rule:evenodd;clip-rule:evenodd;stroke-linecap:round;stroke-linejoin:round;stroke-miterlimit:1.5;"><path d="M8272.5,3423.9l0,1688.81c0,414.321 -66.267,710.65 -102.046,1132.45c-12.404,146.263 12.75,265.796 41.904,416.296c452.013,2333.29 259.634,2141.72 -952.408,896.592c-196.075,-201.425 -400.883,114.766 -640.487,235.483c-405.084,204.092 -862.638,319.05 -1346.83,319.05l-1819.96,0c-1655.67,0 -2999.87,-1344.2 -2999.87,-2999.87l0,-1688.81c0,-1655.67 1344.2,-2999.86 2999.87,-2999.86l1819.96,0c1655.67,0 2999.86,1344.19 2999.86,2999.86Z" style="fill:url(#_Linear1);"/><path d="M4885.75,3840.79l-1196.52,809.86l1196.52,675.945" style="fill:none;stroke:#1b2129;stroke-width:416.67px;"/><path d="M2996.47,6103.55c-14.801,-60.544 -0.97,-124.523 37.5,-173.535c38.488,-49.03 97.349,-77.654 159.679,-77.654c109.045,-0.164 237.473,-0.164 338.438,-0.164c90.425,-0 169.97,59.771 195.114,146.631c78.756,269.253 370.61,469 718.542,469c347.939,-0 639.794,-199.747 718.93,-468.888c25.109,-86.695 104.481,-146.344 194.725,-146.344c100.974,-0.399 229.393,-0.399 338.455,-0.399c62.373,-0 121.287,28.64 159.793,77.704c38.523,49.065 52.36,113.089 37.559,173.684c-139.68,559.408 -735.546,979.855 -1449.46,979.855c-713.909,-0 -1309.77,-420.447 -1449.27,-979.89Z" style="fill:#1b2129;"/><path d="M2963.95,2580.91c316.38,0 572.858,256.479 572.858,572.859c0,316.38 -256.478,572.858 -572.858,572.858c-316.38,0 -572.859,-256.478 -572.859,-572.858c0,-316.38 256.479,-572.859 572.859,-572.859" style="fill:#1b2129;"/><path d="M5924.9,2580.91c316.381,0 572.859,256.479 572.859,572.859c-0,316.38 -256.478,572.858 -572.859,572.858c-316.38,0 -572.858,-256.478 -572.858,-572.858c-0,-316.38 256.478,-572.859 572.858,-572.859" style="fill:#1b2129;"/><defs><linearGradient id="_Linear1" x1="0" y1="0" x2="1" y2="0" gradientUnits="userSpaceOnUse" gradientTransform="matrix(7662.88,0,0,7662.88,452.829,4444.46)"><stop offset="0" style="stop-color:#f4b137;stop-opacity:1"/><stop offset="1" style="stop-color:#ffa500;stop-opacity:1"/></linearGradient></defs></svg>