<?xml version="1.0" encoding="UTF-8" standalone="no"?><!DOCTYPE svg PUBLIC "-//W3C//DTD SVG 1.1//EN" "http://www.w3.org/Graphics/SVG/1.1/DTD/svg11.dtd"><svg width="100%" height="100%" viewBox="0 0 8892 8892" version="1.1" xmlns="http://www.w3.org/2000/svg" xmlns:xlink="http://www.w3.org/1999/xlink" xml:space="preserve" xmlns:serif="http://www.serif.com/" style="fill-rule:evenodd;clip-rule:evenodd;stroke-linecap:round;stroke-linejoin:round;stroke-miterlimit:1.5;"><path d="M8272.5,3423.9l0,1688.81c0,414.321 -66.267,710.65 -102.046,1132.45c-12.404,146.263 12.75,265.796 41.904,416.296c452.013,2333.29 259.634,2141.72 -952.408,896.592c-196.075,-201.425 -400.883,114.766 -640.487,235.483c-405.084,204.092 -862.638,319.05 -1346.83,319.05l-1819.96,0c-1655.67,0 -2999.87,-1344.2 -2999.87,-2999.87l0,-1688.81c0,-1655.67 1344.2,-2999.86 2999.87,-2999.86l1819.96,0c1655.67,0 2999.86,1344.19 2999.86,2999.86Z" style="fill:url(#_Linear1);"/><path d="M2748.05,4732.51c-5.113,-19.975 -7.833,-40.904 -7.833,-62.463c-0,-138.716 112.62,-251.341 251.337,-251.341l2548.09,-0c138.716,-0 251.337,112.625 251.337,251.341c0,21.559 -2.717,42.488 -7.833,62.463l2.571,-0c-0,342.825 -160.205,671.608 -445.375,914.021c-593.438,504.462 -1557.03,504.462 -2150.47,-0c-285.171,-242.413 -445.375,-571.196 -445.375,-914.021l3.554,-0Zm2431.15,188.875l-1828.19,-0c40.438,141.396 125.871,271.979 248.913,376.571c367.125,312.079 963.237,312.079 1330.36,-0c123.042,-104.592 208.475,-235.175 248.913,-376.571Z" style="fill:#1b2129;"/><path d="M2543.24,2565.04l1196.52,809.859l-1196.52,675.946" style="fill:none;stroke:#1b2129;stroke-width:416.67px;"/><path d="M5982.49,2565.04l-1196.52,809.859l1196.52,675.946" style="fill:none;stroke:#1b2129;stroke-width:416.67px;"/><defs><linearGradient id="_Linear1" x1="0" y1="0" x2="1" y2="0" gradientUnits="userSpaceOnUse" gradientTransform="matrix(7662.88,0,0,7662.88,452.829,4444.46)"><stop offset="0" style="stop-color:#f4b137;stop-opacity:1"/><stop offset="1" style="stop-color:#ffa500;stop-opacity:1"/></linearGradient></defs></svg>